<svg xmlns="http://www.w3.org/2000/svg" viewBox="0 0 263.61 139.96"><path d="M-.03.23L0 81.88c0 17.94 1.2 23.32 11.72 35.7s37.48 22.38 37.48 22.38 26.93-10 37.47-22.38c10.53-12.38 11.7-17.76 11.7-35.7L98.4.23S86.27 7.45 73.93 6.55C59.93 5.52 49.2 0 49.2 0S38.45 5.52 24.45 6.55C12.1 7.45-.03.23-.03.23z" fill="none" stroke="#82878b" stroke-width=".662"/><path d="M72.47 10.28C59.3 9.3 49.2 4.1 49.2 4.1s-10.4 5.2-23.3 6.16C14.28 11.14 3.2 5.8 3.2 5.8l.03 75.05c0 16.88.78 22.28 10.7 33.93s35.28 21.06 35.28 21.06 25.34-9.4 35.26-21.06c9.9-11.65 10.4-16.72 10.4-33.6l.03-74.94s-10.8 4.9-22.43 4.04zm10.25 49.25L75.5 49.06v18.76c0 7.78-2.44 12.4-4.47 14.56-5 5-11.35 6.3-16.12 6.6v3.4c0 3.8.73 6.4 4.35 6.4H66v11.2H32.26v-11.2H39c3.63 0 4.35-2.6 4.35-6.4l-.01-3.4c-4.76-.3-11.1-1.58-16.1-6.58-2.04-2.17-4.47-6.78-4.47-14.56V49.08l-7.22 10.46-5.28-3.05 4.8-17.25s2.5-.66 7.56-1.35c-.36-4.1-1.4-8.9-4.2-10.18l.4-1.96s15.76-2.57 19.47-4.47l1.1 6.04s-7.56.57-7.7 9.62c4.77-.37 10.57-.63 17.44-.63s12.67.26 17.44.63c-.14-9.06-7.7-9.62-7.7-9.62l1.08-6.04c3.72 1.9 19.48 4.47 19.48 4.47l.4 1.96c-2.8 1.3-3.84 6.07-4.2 10.18 5.06.7 7.57 1.35 7.57 1.35L88 56.5l-5.3 3.04zM31.7 47.08v17s-.1 4.54 1 7.42c1.28 3.3 3.2 5.1 10.6 5.65l-.05-30.5c.02 0-5.1-.04-11.56.44zm34.86 0C60.1 46.6 55 46.64 55 46.64l-.05 30.5c7.4-.54 9.33-2.34 10.6-5.65 1.1-2.88 1.02-7.42 1.02-7.42l-.01-17z" fill="#82878b"/><g fill="none" stroke="#82878b" stroke-width=".777"><path d="M82.93 38.85S71.8 35.9 48.87 35.9c-22.94 0-34.06 2.94-34.06 2.94L10 56.1l5.28 3.05 7.98-11.57c9.73-1.4 19.75-1.3 19.75-1.3l.07 45.7c0 3.8-.72 6.4-4.35 6.4H32v11.2h33.73V98.4H59c-3.62 0-4.35-2.6-4.35-6.4l.08-45.7s10-.1 19.75 1.3l7.97 11.57 5.3-3.05-4.8-17.25z"/><path d="M48.87 35.9z"/></g><path d="M198.07 2.44c-36.2 0-65.54 29.34-65.54 65.54s29.34 65.54 65.54 65.54 65.54-29.34 65.54-65.54-29.34-65.54-65.54-65.54zm-.12 18.67c6.98 0 12.63 5.66 12.63 12.63a12.64 12.64 0 0 1-12.63 12.63 12.64 12.64 0 0 1-12.63-12.63c0-6.97 5.65-12.63 12.63-12.63zm14.58 92.4c-9.53 0-26.22-6.44-26.18-22.84v-16.6c0-9.8-3.9-12.9-7.07-12.9-1.35 0-2.66.56-3.58 1.55 3.9-5.04 9.9-8.02 16.3-8.02 11.44 0 20.54 7.3 20.54 20.7v38.12z" fill="#82878b"/></svg>